<?xml version="1.0" encoding="utf-8"?>
<!-- Generator: Adobe Illustrator 22.0.1, SVG Export Plug-In . SVG Version: 6.00 Build 0)  -->
<svg version="1.1" id="Layer_1" xmlns="http://www.w3.org/2000/svg" xmlns:xlink="http://www.w3.org/1999/xlink" x="0px" y="0px"
	 viewBox="0 0 1227.1 220.5" style="enable-background:new 0 0 1227.1 220.5;" xml:space="preserve">
<style type="text/css">
	.st0{fill-rule:evenodd;clip-rule:evenodd;fill:#FFFFFF;}
</style>
<path class="st0" d="M94,194l-9.2,0.5c0-0.6-0.1-1.3-0.2-1.9c-0.1-0.7-0.3-1.2-0.5-1.6c-0.4-0.8-0.9-1.4-1.5-1.9
	c-0.6-0.4-1.4-0.6-2.2-0.6c-1,0-1.8,0.3-2.5,0.8c-0.6,0.6-1.2,1.4-1.6,2.6c-0.3,0.8-0.5,1.6-0.6,2.5c-0.1,0.9-0.2,2.1-0.2,3.5
	c0,1.7,0.1,3,0.2,3.9c0.1,0.9,0.4,1.8,0.7,2.6c0.4,0.9,0.9,1.6,1.6,2.1c0.6,0.5,1.4,0.7,2.3,0.7c0.8,0,1.5-0.2,2.1-0.5
	c0.6-0.4,1.1-0.9,1.5-1.7c0.3-0.5,0.5-1.1,0.7-1.6c0.2-0.6,0.2-1.1,0.2-1.7l9,0.5c-0.1,1.7-0.5,3.3-1.2,4.7
	c-0.7,1.5-1.6,2.8-2.7,3.9c-1.3,1.3-2.8,2.2-4.5,2.8c-1.7,0.6-3.5,0.9-5.4,0.9c-3.2,0-5.9-0.7-8.1-2c-2.2-1.4-3.9-3.2-5.1-5.5
	c-0.6-1.2-1.1-2.5-1.4-3.9c-0.3-1.4-0.5-3-0.5-4.8c0-3.1,0.5-5.7,1.4-7.9c0.9-2.2,2.2-4,3.9-5.5c1.3-1.2,2.8-2,4.4-2.6
	c1.6-0.6,3.4-0.8,5.3-0.8c2,0,3.9,0.3,5.6,0.9c1.7,0.6,3.2,1.6,4.5,2.9c1.1,1.1,2,2.5,2.6,4C93.6,190.6,93.9,192.3,94,194L94,194z
	 M455.5,97.3c-5.4-5.8-21.6-23.9-22.4-32.6c-0.8-8.1-17.8,5.3-19.9,7c-10.3,8.2-16.4,17.5-27.3,25.6c-11,8.1-21.4,14.3-35.3,14.9
	c-11,0.5-33.6-2.1-26.3-17.8c6.1-13.1,20.2-21.3,33.9-25.9c7.1-2.4,14.8-3.9,22.3-2.8c7.8,1.1,8.4,4.8,18.4,3
	c5.8-0.4,25.6-14.4,18.8-18.3c-13.5-6.5-33.9-2.5-47.7,1.4c-22.7,6.4-67.5,25.1-70.3,51.7c-1.5,14,15,23.8,27.2,26
	c17.3,3.1,34.6-1.2,49.5-9.8c11.4-6.6,21.2-15.3,30.1-24.7c7.2-7.7,7.7-1.9,12.3,6.3c7.2,12.7,14.1,22.5,22.2,32.3
	c11.9,14.3,20.3,0.3,30-10.9C480.9,111.4,465.3,107.7,455.5,97.3L455.5,97.3z M1080.9,113.1c-31-30.5,58.8-56,80-58.1
	c20.7-2.1,40.2,0.6,43.8,7.4c3.6,6.8-19.2,22.7-38.2,30.3c-13.2,5.3-47.7,14.8-47.4,9.9c0.3-5.3,61.1-24,46.8-29.7
	c-14-5.5-32.3-0.6-45.7,6.8c-51.1,33.9,36.4,67.4,78.8,31.9c13.9-5.8,27.5-1.4,28,3.3c0.2,2.4-5.4,4.2-13.9,7.1
	C1173.8,135.4,1111.3,142.9,1080.9,113.1L1080.9,113.1z M883.1,131.9c1.6,5.4,12.7,4.7,30.3,0.7c23.9-5.2,78.4-40.8,87.8-43.4
	c9.3-2.7,18.8,23.1,30,37.4c11.2,14.3,20.4,1.3,30.8-9c10.4-10.3-5.1-14.7-14.3-25.1c-9.2-10.3-18.1-30.3-27.2-33.1
	c-9.2-2.8-74.4,45.8-101.4,59.1C892.1,131.9,881.6,126.5,883.1,131.9L883.1,131.9z M863.9,54c15.3-1.1,79.1-11.4,85,0.7
	c9,18.4-54,11.1-88.7,15c-2.8,21,0.6,28.5,7.2,47.4c3.2,9.1,6.1,14.7,3.9,17.7c-3.8,5.2-19.9,10.9-26.3,6.8c-3.7-2.4-5.8-9.1-6-21.4
	c-0.2-18.9,2.2-31.4,5.7-49.9c-48.7-2.4-58.4-7.9-56.6-15.3c1.2-6.6,22.6,2.8,60.4,0.4C849.5,45.1,868.7,25.2,863.9,54L863.9,54z
	 M653.5,92.9c-18.5,33.1,88,43.8,112.8,44.3c10.7,0.2,18.7-0.2,18.7-1.4c-0.1-2.5-11.8-3.9-11.8-3.9c-25.7-3.4-51-7.9-74-18
	c-18.6-9.6-24.9-21.5-7.2-34.3c12.9-7.4,35-14.3,50.2-8.7c9.5,3.2-9.3,12.8-18.4,17.6c-9.6,5.1-28.2,11.4-28.1,13.9
	c0.2,3.4,15.8,0.4,29.7-3.5c15.1-4.3,64-24.8,55.9-36.7c-4.6-6.8-25.4-9.9-46.6-7.9C706.8,57.1,664.1,74.1,653.5,92.9L653.5,92.9z
	 M668,126.9c0,0,7.4,2.2,1,6.4c-5.5,3.6-54.3-6.7-103.2-22.5c-27.6,13.4-70.6,27.6-74.4,21c-3.9-6.9-9.4-22.4-1.6-24.2
	c4.3-1,36.2-4.4,49.6-6.6c-38.3-14.6-60.5-24-42.1-41.2c5.7-5.3,8.4-2.4,23.2,9.3c6.3,5,37.5,24.1,38.9,23.7
	c29.1-7.9,64.8-32.1,64.8-32.1c3.1-0.6,6.6,3.3,1.4,8.2c-4.2,4.1-20.9,19.3-44,32.9C608.8,112.5,639.6,119.6,668,126.9L668,126.9z
	 M160.8,67c26-20.3,141.4,12.5,121.5,37c-2.9,3.6-20,15-49.3,23.3c-36.4,10.3-146.2,23.6-142.9-27.1c1.6-13.1,10.6-37.2,15.5-52.3
	c-28.5,5.9-74.3,22-100.1,36.1C-3.2,88.7,0,57.1,4.2,51.6C11.1,42.7,92,26.2,114,24c7.7-16.4,14.4-26.1,21.6-23.7
	c5.9,2,1.9,11,0.1,21.5c67.7-5,112.9-1.1,163.4,7.3c3,0.5,5,3.2,4.3,4.8c-0.7,1.6-3.2,1.6-5.6,1.4c-91.6-6.6-138.7,1-166.4,7.4
	c-7.8,27.9-11.1,52.2-2.2,67c4.2,7,12.1,9.7,19.3,11.1c21.9,4.3,81.5-9.2,95.5-30.4c2.6-3.9,0.6-6.8-11.7-6.6
	c-23.2,0.4-46.3,3-68.8,7.8C130.2,98.7,139.2,84,160.8,67L160.8,67z M110.6,181.8h10.9l5.8,12.7h0.1l5.2-12.7h8.7l-10,22.7
	c-0.9,1.9-1.6,3.4-2.1,4.4c-0.6,1-1.1,1.8-1.7,2.5c-1,1.1-2.1,1.8-3.3,2.3c-1.3,0.5-2.8,0.7-4.7,0.7c-0.8,0-1.6,0-2.4-0.1
	c-0.8-0.1-1.6-0.2-2.5-0.4v-7.2c0.5,0.1,1.2,0.3,1.9,0.4c0.7,0.1,1.4,0.2,2,0.2c0.5,0,0.9-0.1,1.3-0.2c0.4-0.1,0.7-0.3,1-0.5
	c0.3-0.2,0.5-0.4,0.8-0.7c0.2-0.3,0.4-0.6,0.5-0.9L110.6,181.8L110.6,181.8z M159.1,181.8H186v32.1h-9.8v-24.6H169v24.6h-9.9V181.8
	L159.1,181.8z M207.4,181.8h23.8v7.5h-13.9v4.8h11.5v6.9h-11.5v5.3h13.9v7.7h-23.8V181.8L207.4,181.8z M251,181.8h12.7
	c2.7,0,4.7,0.1,6,0.4c1.3,0.3,2.4,0.7,3.3,1.2c1.5,0.8,2.6,2,3.5,3.4c0.8,1.4,1.3,3.1,1.3,5.1c0,1-0.1,2-0.4,2.9
	c-0.3,1-0.6,1.9-1.1,2.7c-1,1.6-2.4,2.8-4.1,3.6c-1.7,0.8-4,1.2-6.9,1.2l-4.5,0v11.6H251V181.8L251,181.8z M260.8,195.1h3.4
	c0.6,0,1.1-0.1,1.6-0.2c0.5-0.1,0.8-0.4,1.1-0.7c0.3-0.3,0.5-0.6,0.6-1c0.2-0.4,0.2-0.8,0.2-1.2c0-0.4-0.1-0.8-0.2-1.2
	c-0.1-0.4-0.3-0.7-0.6-1c-0.3-0.3-0.7-0.6-1.1-0.7c-0.5-0.2-1-0.2-1.7-0.2l-3.4,0V195.1L260.8,195.1z M310.1,181.8l4.8,17h0.1
	l4.7-17h12.9v32.1h-9.4v-23H323l-5.9,23H311l-6.1-23h-0.1v23h-7.6v-32.1H310.1L310.1,181.8z M371.1,181.8l9.9,32.1h-10l-1.7-6.4
	h-8.7l-1.7,6.4h-7.9l9.8-32.1H371.1L371.1,181.8z M367.6,200.6l-2.5-9.4l-2.5,9.4H367.6L367.6,200.6z M399.8,181.8h12.7
	c2.7,0,4.7,0.1,6,0.4c1.3,0.3,2.4,0.7,3.3,1.2c1.5,0.8,2.6,2,3.5,3.4c0.8,1.4,1.2,3.1,1.2,5.1c0,1-0.1,2-0.4,2.9
	c-0.3,1-0.6,1.9-1.1,2.7c-1,1.6-2.4,2.8-4.1,3.6c-1.7,0.8-4,1.2-6.9,1.2l-4.5,0v11.6h-9.9V181.8L399.8,181.8z M409.7,195.1h3.4
	c0.6,0,1.1-0.1,1.6-0.2c0.5-0.1,0.8-0.4,1.1-0.7c0.3-0.3,0.5-0.6,0.6-1c0.2-0.4,0.3-0.8,0.3-1.2c0-0.4-0.1-0.8-0.2-1.2
	c-0.1-0.4-0.3-0.7-0.6-1c-0.3-0.3-0.7-0.6-1.1-0.7c-0.5-0.2-1-0.2-1.7-0.2l-3.4,0V195.1L409.7,195.1z M446.1,181.8h9.9V194h0.9
	c1.1,0,2-0.4,2.5-1.1c0.6-0.7,1.1-1.8,1.5-3.4c1-3.6,1.4-5.4,1.4-5.3c0,0,0-0.1,0.1-0.3c0.2-0.6,0.5-1.1,0.8-1.4
	c0.3-0.4,0.6-0.6,1-0.7l8.7,0c-0.4,0.3-0.8,1-1.3,1.9c-0.5,0.9-0.8,1.9-1.1,3l-0.9,3.1c-0.5,1.8-0.9,3-1.1,3.5
	c-0.2,0.5-0.5,1-0.7,1.3c-0.4,0.7-1,1.2-1.6,1.6c-0.6,0.4-1.2,0.6-1.9,0.6v0.2c1,0.2,1.8,0.5,2.3,0.8c0.6,0.3,1.1,0.6,1.5,1.1
	c0.6,0.6,1.2,1.5,1.7,2.5c0.5,1,1.1,2.8,1.8,5.4c0.7,2.6,1.2,4.3,1.5,5c0.3,0.8,0.7,1.5,1.3,2.2l-9.6,0c-0.6-0.5-1.2-1.2-1.6-2.2
	c-0.4-1-1-3.2-1.7-6.7c-0.2-0.9-0.4-1.5-0.6-2c-0.2-0.4-0.4-0.8-0.6-1.1c-0.3-0.3-0.6-0.6-1-0.7c-0.4-0.2-1-0.3-1.8-0.3H456v13h-9.9
	V181.8L446.1,181.8z M492.8,181.8h23.8v7.5h-13.9v4.8h11.5v6.9h-11.5v5.3h13.9v7.7h-23.8V181.8L492.8,181.8z M533.6,181.8h23.1v7.5
	h-6.7v24.6h-9.8v-24.6h-6.6V181.8L533.6,181.8z M622.4,181.8h22.3v24.5h2.8v14.2h-8.9v-6.5h-13.3v6.5h-8.9v-14.2h2.3
	c0.7-1.3,1.3-2.6,1.7-3.8c0.4-1.3,0.8-2.6,1.1-4.2c0.3-1.5,0.5-3.3,0.7-5.3c0.2-2,0.2-4.2,0.2-6.6L622.4,181.8L622.4,181.8z
	 M630,189.3v2.6c0,1.3-0.1,2.7-0.2,4.2c-0.2,1.5-0.4,2.9-0.7,4.3c-0.2,1-0.5,2-0.8,2.9c-0.3,0.9-0.7,1.9-1.2,2.9l7.8,0v-17H630
	L630,189.3z M681.2,181.3c2.1,0,4,0.3,5.8,1c1.8,0.6,3.3,1.6,4.6,2.7c1.5,1.4,2.7,3.1,3.6,5.3c0.9,2.2,1.3,4.7,1.3,7.5
	c0,2.4-0.4,4.7-1.1,6.9c-0.7,2.1-1.8,3.9-3.1,5.3c-1.3,1.4-2.9,2.5-4.8,3.2c-1.9,0.7-4,1.1-6.3,1.1c-2.2,0-4.1-0.3-5.8-0.9
	c-1.7-0.6-3.2-1.6-4.6-2.9c-1.7-1.6-2.9-3.4-3.7-5.5c-0.8-2.1-1.2-4.5-1.2-7.2c0-3,0.5-5.6,1.4-7.8c1-2.2,2.3-4.1,4.1-5.5
	c1.2-1,2.7-1.8,4.3-2.4C677.3,181.6,679.1,181.3,681.2,181.3L681.2,181.3z M681.2,188.3c-0.9,0-1.6,0.2-2.2,0.7
	c-0.6,0.4-1.1,1.1-1.5,1.9c-0.3,0.7-0.6,1.6-0.8,2.7c-0.2,1.1-0.3,2.5-0.3,4c0,1.6,0.1,2.9,0.3,4.1c0.2,1.2,0.5,2.1,0.8,2.8
	c0.4,0.9,0.9,1.5,1.5,2c0.6,0.5,1.4,0.7,2.2,0.7c0.8,0,1.6-0.2,2.2-0.7c0.6-0.5,1.1-1.1,1.5-2c0.3-0.7,0.6-1.6,0.8-2.8
	c0.2-1.2,0.3-2.5,0.3-4.1c0-1.5-0.1-2.9-0.3-4c-0.2-1.1-0.5-2-0.8-2.7c-0.4-0.8-0.9-1.5-1.5-1.9C682.7,188.5,682,188.3,681.2,188.3
	L681.2,188.3z M729.4,181.8l4.8,17h0.1l4.7-17h12.9v32.1h-9.4v-23h-0.1l-5.9,23h-6.1l-6.1-23h-0.1v23h-7.6v-32.1H729.4L729.4,181.8z
	 M790.4,181.8l9.9,32.1h-10l-1.7-6.4H780l-1.7,6.4h-7.9l9.8-32.1H790.4L790.4,181.8z M786.8,200.6l-2.5-9.4l-2.5,9.4H786.8
	L786.8,200.6z M819.5,181.8h9.4v24.5h5.3v-24.5h9.4v24.5h5.3v-24.5h9.4v32.1h-38.7V181.8L819.5,181.8z M906.5,181.8v32.1h-9.8v-12.6
	h-7.1v12.6h-9.9v-32.1h9.9v12h7.1v-12H906.5L906.5,181.8z M928,181.8h23.8v7.5h-13.9v4.8h11.5v6.9h-11.5v5.3h13.9v7.7H928V181.8
	L928,181.8z M971.5,181.8h9.9v13c0,0.9,0,1.7-0.1,2.4c0,0.7-0.1,1.4-0.2,2.1c0.1-0.5,0.3-1.1,0.5-1.8c0.2-0.6,0.5-1.1,0.7-1.5
	l6.2-11.9v-2.3h9.8v32.1h-9.8v-13c0-0.9,0-1.7,0.1-2.4c0-0.7,0.1-1.4,0.2-2.1c-0.1,0.5-0.3,1.1-0.6,1.8c-0.2,0.6-0.5,1.1-0.7,1.5
	l-6.2,11.8v2.4h-9.9V181.8L971.5,181.8z M975.1,172h7.1c0,0.3,0,0.7,0.1,1c0.1,0.3,0.3,0.6,0.5,0.8c0.2,0.2,0.5,0.4,0.8,0.5
	c0.3,0.1,0.7,0.2,1.2,0.2c0.5,0,0.9-0.1,1.3-0.2c0.3-0.1,0.6-0.3,0.8-0.5c0.2-0.2,0.4-0.5,0.5-0.8c0.1-0.3,0.2-0.6,0.2-1h7.1
	c0,1-0.3,1.9-0.7,2.8c-0.5,0.8-1.1,1.6-2,2.2c-0.8,0.6-1.8,1-3,1.3s-2.6,0.4-4.2,0.4c-1.6,0-3-0.2-4.2-0.4c-1.2-0.3-2.2-0.7-3-1.3
	c-0.9-0.6-1.5-1.3-2-2.2C975.4,174,975.2,173,975.1,172L975.1,172z M1063.5,181.8h23.8v7.5h-13.9v4.8h11.5v6.9h-11.5v5.3h13.9v7.7
	h-23.8V181.8L1063.5,181.8z M1110.5,181.8h22.3v24.5h2.8v14.2h-8.9v-6.5h-13.3v6.5h-8.9v-14.2h2.3c0.7-1.3,1.3-2.6,1.7-3.8
	c0.4-1.3,0.8-2.6,1.1-4.2c0.3-1.5,0.5-3.3,0.7-5.3c0.2-2,0.2-4.2,0.2-6.6V181.8L1110.5,181.8z M1118.1,189.3v2.6
	c0,1.3-0.1,2.7-0.2,4.2c-0.2,1.5-0.4,2.9-0.7,4.3c-0.2,1-0.5,2-0.8,2.9c-0.3,0.9-0.7,1.9-1.2,2.9l7.8,0v-17H1118.1L1118.1,189.3z
	 M1155.4,181.8h9.9v12.1h6.8c1.2,0,2.4,0.2,3.6,0.5c1.2,0.3,2.2,0.8,3,1.4c1.1,0.8,2,1.9,2.5,3.2c0.6,1.3,0.9,2.8,0.9,4.5
	c0,3.2-0.9,5.8-2.7,7.6c-1.8,1.8-4.5,2.8-8.2,2.8l-15.8,0V181.8L1155.4,181.8z M1165.2,200.9v5.8h4.1c0.5,0,1-0.1,1.3-0.2
	c0.3-0.1,0.6-0.3,0.9-0.6c0.2-0.3,0.4-0.5,0.5-0.9c0.1-0.3,0.2-0.7,0.2-1.1c0-0.9-0.3-1.6-0.8-2.1c-0.5-0.5-1.2-0.8-2.1-0.8
	L1165.2,200.9L1165.2,200.9z M1184.4,181.8h9.8v32.1h-9.8V181.8z"/>
</svg>
